<?xml version="1.0" encoding="UTF-8"?>
<svg width="16px" height="15px" viewBox="0 0 16 15" version="1.1" xmlns="http://www.w3.org/2000/svg" xmlns:xlink="http://www.w3.org/1999/xlink">
    <!-- Generator: sketchtool 49.3 (51167) - http://www.bohemiancoding.com/sketch -->
    <title>09CFEAC1-CBE2-4EE1-B0D6-D679C9BC5C7E</title>
    <desc>Created with sketchtool.</desc>
    <defs></defs>
    <g id="Symbols" stroke="none" stroke-width="1" fill="none" fill-rule="evenodd">
        <g id="icon_warning_16" fill="rgb(253,107,93)">
            <path d="M8.88070936,0.512471808 L15.8759833,13.5259651 C16.1374738,14.0124229 15.9551019,14.6187548 15.4686441,14.8802453 C15.3230927,14.958485 15.1604209,14.9994356 14.9951736,14.9994356 L1.00462572,14.9994356 C0.452340967,14.9994356 0.00462571668,14.5517204 0.00462571668,13.9994356 C0.00462571668,13.8341883 0.045576331,13.6715165 0.123816034,13.5259651 L7.11908999,0.512471808 C7.38058052,0.0260140524 7.98691241,-0.156357917 8.47337016,0.105132613 C8.64616608,0.19801734 8.78782463,0.339675892 8.88070936,0.512471808 Z M9,12 C9,11.4166667 8.61325967,11 8.00552486,11 C7.39779006,11 7,11.4166667 7,12 C7,12.5833333 7.39779006,13 8.00552486,13 C8.61325967,13 9,12.5833333 9,12 Z M7,5.99980749 L7,9.00019251 C7,9.55628335 7.44771525,10 8,10 C8.55613518,10 9,9.55237094 9,9.00019251 L9,5.99980749 C9,5.44371665 8.55228475,5 8,5 C7.44386482,5 7,5.44762906 7,5.99980749 Z"></path>
        </g>
    </g>
</svg>
